# xmcd
#
# Track frame offsets:
#	150
#	13653
#	35849
#	53606
#	75945
#	98647
#	114237
#	138688
#	157881
#	176502
#	192687
#	246011
#	265270
#
# Disc length: 3751 seconds
#
# Revision: 0
# Processed by: cddbd v1.5.2PL0 Copyright (c) Steve Scherf et al.
# Submitted via: audiograbber 1.83.01
#
DISCID=a30ea50d
DTITLE=Ben Harper - Fight For Your Mind
DYEAR=1995
DGENRE=
TTITLE0=Oppression
TTITLE1=Ground On Down
TTITLE2=Another Lonely Day
TTITLE3=Please Me Like You Want To
TTITLE4=Gold To Me
TTITLE5=Burn One Down
TTITLE6=Excuse Me Mr.
TTITLE7=People Lead
TTITLE8=Fight For Your Mind
TTITLE9=Give A Man A Home
TTITLE10=By My Side
TTITLE11=Power Of The Gospel
TTITLE12=God Fearing Man
EXTD=
EXTT0=
EXTT1=
EXTT2=
EXTT3=
EXTT4=
EXTT5=
EXTT6=
EXTT7=
EXTT8=
EXTT9=
EXTT10=
EXTT11=
EXTT12=
PLAYORDER=
